<svg width="40" height="25" viewBox="0 0 40 25" fill="none" xmlns="http://www.w3.org/2000/svg">
<path d="M26.0151 17.804C25.841 17.8378 25.6631 17.8712 25.4802 17.8956C24.1785 18.2456 22.8862 18.3706 21.623 18.0539C20.9481 17.8861 20.2488 17.79 19.5934 17.5689C19.3809 17.4917 19.2409 17.1511 19.0195 16.8917C19.1065 16.9056 19.1935 16.9255 19.2805 16.945C19.0965 16.8294 18.9671 16.6951 18.8896 16.5417L19.6029 17.0218C19.7195 17.0456 19.8293 17.0751 19.9453 17.1034L19.9258 17.0889C19.0485 16.5222 18.3012 15.8117 17.7133 14.9806C17.3804 14.0828 17.0089 12.9973 16.9705 12.4978L16.831 12.6756C16.7875 12.8956 16.807 13.1701 16.874 13.4578C16.826 13.3423 16.7825 13.2228 16.739 13.1028C16.739 13.3189 16.7446 13.54 16.749 13.7611C16.739 13.7078 16.7301 13.6595 16.72 13.6079C16.5125 12.6034 16.3196 10.9856 15.7753 10.1645C15.3943 9.55952 14.8109 9.22775 13.8907 9.32386C13.7697 9.33331 13.6492 9.35723 13.5332 9.38612C13.9582 9.40501 14.3776 9.4539 14.7914 9.53057C14.9888 9.61223 15.1629 9.75559 15.2884 9.95781C15.6453 10.4478 15.7368 11.1017 15.7853 11.7739C15.7714 11.9228 15.7368 12.0762 15.6838 12.22L15.5778 12.2251C15.5393 11.9562 15.5053 11.6828 15.4674 11.4183C15.2845 10.2994 14.6141 9.8867 13.7652 9.81893C13.3218 9.78115 12.8695 9.82396 12.42 9.93896C11.5187 10.5979 10.7663 11.6251 10.111 12.3356C8.65478 13.9106 7.32907 15.6494 6.03738 17.3966C6.26883 16.8689 6.60569 16.3839 6.89013 15.8794L6.76466 15.7933C6.01731 16.8017 5.23148 17.7767 4.76857 19.045C4.79758 19.0306 4.82654 19.0106 4.86001 18.9967C3.19687 21.2445 0.622434 24.6922 0.155061 25C0.105981 24.75 -0.0624566 24.4328 0.0245484 24.27C1.22979 21.8978 2.47854 19.5545 3.69326 17.1867L3.56779 17.7006C4.06026 17.2728 4.2376 16.8462 4.10263 16.3751C4.34413 15.9001 4.58004 15.4289 4.81596 14.9533C5.94925 12.6533 7.00502 10.3 7.98829 7.92778C8.00725 7.87945 8.02677 7.83167 8.04629 7.78333C7.98829 7.27 7.86336 6.72788 7.84886 5.94455C7.8773 5.20955 8.01731 4.46499 8.26327 3.74999C8.86059 1.70388 8.62913 2.55843 10.1573 1.06065L10.5577 0.661208L10.6492 0.757779C10.5817 0.911113 10.5042 1.06053 10.4177 1.20442C10.6007 1.07442 10.7892 0.949968 10.9872 0.834412C12.0474 0.206079 13.2331 -0.0778068 14.4004 0.0183043C15.0608 0.181638 15.6007 0.40727 16.063 0.680604C16.058 0.651715 16.058 0.623347 16.0535 0.589458L18.507 1.53998L18.464 1.72783C18.2515 1.70894 18.034 1.71335 17.8271 1.66558C17.5767 1.58835 17.3257 1.52114 17.0708 1.4628C17.3793 1.76558 17.6492 2.09231 17.9052 2.43842C17.9096 2.49619 17.9236 2.55842 17.9426 2.61176C18.1361 2.9712 18.3575 3.30786 18.6999 3.48008C18.8293 3.55175 18.9693 3.58556 19.1138 3.57611C19.3937 3.495 19.6737 3.39896 19.9481 3.28396C20.565 3.06285 21.0909 2.54444 21.3993 1.85777C21.2978 1.8811 21.2064 1.93397 21.1249 2.01619C20.7295 2.53008 20.2326 2.90897 19.6832 3.11564C19.2878 3.26897 18.9069 3.2889 18.5795 3.07223C18.8299 3.16334 19.1049 3.10621 19.4038 2.8951C20.3151 2.23176 21.2984 1.72223 22.3162 1.37668C23.7719 1.11279 25.2231 0.988427 26.6548 1.19954C26.7373 1.22343 26.8288 1.11336 27.0552 0.988357C27.2248 0.90169 28.5834 1.18062 29.2582 1.44395C28.8539 1.45839 28.4434 1.5112 28.029 1.59342C30.266 1.53064 32.1277 2.79451 33.9108 4.32562L34.0073 4.06616L32.937 3.20231C33.0429 3.26953 33.1489 3.3361 33.2549 3.40888C34.2962 3.37054 35.2895 3.52831 36.2342 4.10942C36.5477 4.30165 36.9392 4.3212 37.2805 4.4462C37.4066 4.49342 37.502 4.66174 37.6135 4.77674L37.5321 4.94506L36.5823 4.69563L38.4384 6.53062L38.3224 6.78005C36.8717 5.25283 35.338 3.93676 33.4579 3.54342C33.5493 3.60565 33.6408 3.66782 33.7323 3.7306C33.8728 3.8306 34.0173 3.93225 34.1567 4.03225C34.2488 4.07058 34.3408 4.10443 34.4317 4.13831L34.4172 4.1573L35.676 5.32443L35.531 5.43443C35.6085 5.66999 35.7139 5.8862 35.8399 6.07842C35.9604 6.21731 36.0954 6.33724 36.2303 6.45724L36.2833 6.50553C36.4183 6.62497 36.5533 6.74505 36.6737 6.88449C37.4596 7.77338 37.894 8.94997 38.2655 10.1689C38.8483 12.09 38.6458 14.1606 37.9375 16.264C37.4267 17.8095 36.5577 19.1689 35.599 20.485C34.3023 21.5845 32.7591 22.3479 30.9565 22.8718C30.0117 23.3134 28.9604 23.5634 27.8372 23.6018C28.2515 23.3284 28.6709 23.0345 29.0903 22.7178C29.4473 22.4534 30.1657 22.1795 30.8556 21.7962C29.7033 22.2429 28.184 22.5833 27.7117 22.2567C29.8572 22.2328 31.3993 21.4929 32.3648 20.4706C32.3832 20.4418 32.3977 20.4128 32.4127 20.379C32.4506 20.3501 32.4897 20.3212 32.5282 20.2928C32.7256 20.0623 33.063 19.7456 33.053 19.8417C34.5522 18.4345 35.382 16.4655 35.237 14.1844C35.184 13.3494 35.068 12.5372 34.9041 11.7878C34.7936 10.6117 34.4462 9.51225 34.0558 8.43614C33.8918 8.03725 33.2549 7.8789 32.9849 7.55723C32.9665 7.5239 32.947 7.49565 32.923 7.4612C32.9425 7.49565 32.961 7.5239 32.9849 7.55723C33.2705 7.97501 33.4819 8.35006 33.6503 8.70117C33.3614 8.31617 33.043 8.0422 32.71 7.9172C31.7122 6.52554 30.169 5.50677 28.0391 5.29066C27.7055 5.25677 27.3776 5.24731 27.0452 5.25675H27.0502V5.49167C26.7613 5.56944 26.4668 5.62175 26.1779 5.65009C26.0864 5.65009 26.0089 5.47782 25.9275 5.35671C24.8137 5.53505 23.744 5.92387 22.8611 6.4761L23.681 6.17838L23.7914 6.39445C23.5745 6.59167 23.3436 6.76899 23.1026 6.92287L23.0736 6.93223C22.9816 6.94223 22.8377 6.81219 22.7206 6.75442L22.7412 6.55232C22.5906 6.64843 22.4512 6.7495 22.3162 6.85506L22.2303 6.77395L21.7808 7.15779C21.6604 7.22446 21.5594 7.31117 21.4774 7.42228L21.7808 7.15779C21.8729 7.10501 21.9743 7.06621 22.0848 7.03843C21.8394 7.24899 21.6168 7.47945 21.4239 7.71945L21.3759 7.55615C20.9565 8.13781 20.638 8.75664 20.4451 9.37608C20.5031 9.65441 20.5661 9.92392 20.638 10.1778C20.6431 10.2211 20.6486 10.2694 20.6576 10.3122C20.609 10.61 20.609 10.9512 20.6676 11.3445C20.6866 11.4701 20.7105 11.5945 20.7345 11.7145C20.4741 11.0184 20.3151 10.2978 20.3396 9.78393C20.1138 10.845 20.2817 11.9017 20.9905 12.8278C21.082 12.9434 21.1684 13.0539 21.2599 13.16C22.7981 16.0455 26.5923 16.5595 27.754 13.8128C27.6442 13.9472 27.5086 14.0773 27.3592 14.1923C26.5298 14.8406 24.7122 15.2101 24.0273 14.8168C26.1338 14.6345 27.2331 13.885 28.063 12.4489C28.0725 11.7339 27.841 10.8018 27.0653 9.85121C26.9777 9.79343 26.8768 9.71665 26.7613 9.62999C26.7992 9.62999 26.8332 9.62619 26.8667 9.62619C26.9392 9.7023 27.0736 9.71731 27.1361 9.79343C27.43 9.99509 27.459 10.0584 27.1941 9.62117C27.6431 9.63006 28.0864 9.71723 28.5438 9.88945L28.6163 9.80835C30.3999 9.89446 31.0943 11.96 30.5204 14.0678C30.3999 14.5189 30.203 14.9518 29.9425 15.3545C29.923 15.3645 29.908 15.3783 29.889 15.3933C29.3196 16.8094 25.0156 19.5084 23.5923 19.2445L24.865 18.8268L24.8411 18.7267L24.1372 18.8656C24.2867 18.6544 24.3201 18.5155 24.4027 18.4961C24.9593 18.3083 25.4947 18.0734 26.0151 17.804ZM22.9347 17.6744C22.9587 17.6744 22.9827 17.6794 23.0072 17.6794C23.0072 17.6694 23.0022 17.66 23.0022 17.6556L22.9347 17.6744ZM38.328 17.0401C38.362 16.954 38.3954 16.8673 38.4294 16.7806C39.3792 14.3412 39.4222 11.9594 38.8009 9.7172C38.3954 8.25276 37.6386 7.08004 36.8968 5.88948C36.5014 5.25559 35.9559 4.86225 35.3826 4.5067C35.879 4.72281 36.3514 4.9967 36.7512 5.43836C37.696 6.49003 38.6559 7.51779 39.3067 8.90557C39.4222 9.15557 39.5281 9.40443 39.6246 9.65888C39.5767 9.68277 39.5382 9.7122 39.5282 9.74053C39.4757 9.91775 39.6347 10.1968 39.8656 10.3601C39.9135 10.5184 39.9626 10.6768 40 10.8351C39.971 11.589 39.8845 12.3189 39.7446 13.0211C39.7206 12.9289 39.6916 12.8428 39.6531 12.7517L39.6631 12.7711C39.6051 11.6667 39.3737 10.6194 38.9258 9.65386C39.2393 10.5855 39.4506 11.5895 39.5912 12.6078L39.6007 12.6267C39.5471 12.5217 39.4897 12.4155 39.4172 12.3155C39.4417 12.7372 39.4417 13.1651 39.4272 13.5967C39.3887 14.0106 39.3357 14.4234 39.2733 14.8367C39.0128 15.6245 38.6899 16.359 38.328 17.0401ZM39.6442 12.7322L39.6492 12.7372L39.6358 12.704L39.6442 12.7322ZM32.4991 7.85888C31.5834 6.34499 29.5538 5.40445 28.213 5.94278L28.184 6.02891C28.5031 6.11502 29.3899 6.04787 29.6938 6.2112C30.1902 6.27843 30.908 6.67174 31.3949 6.85451C31.9738 7.07063 31.9738 7.19563 32.1957 7.90174L32.2197 7.83949C32.3112 7.83449 32.4077 7.83944 32.4991 7.85888ZM8.36028 4.82842C8.26436 5.46731 8.22591 6.12008 8.17738 6.74397C8.1534 6.95064 8.16733 7.12833 8.20135 7.29166C8.3603 6.70555 8.41887 6.09563 8.37536 5.50008C8.36031 5.26508 8.3508 5.04453 8.36028 4.82842ZM10.067 2.08563L9.7245 2.31621L9.64308 2.23008C9.84051 2.05286 10.0045 1.8267 10.2315 1.71115C10.7769 1.43726 11.3452 1.20669 11.9141 0.976692C12.2711 0.832248 12.5505 0.909472 12.715 1.17336C12.3776 1.23114 12.0106 1.22111 11.7273 1.36555C11.2833 1.62 10.8589 1.9084 10.454 2.22506C10.28 2.35506 10.1121 2.47007 9.93865 2.59507L9.84719 2.5084L10.1071 2.13392L10.067 2.08563ZM33.348 2.34008L31.5984 1.42781C32.1333 1.13059 33.0296 1.55786 33.348 2.34008ZM24.0814 0.486648C26.0101 -0.0272415 28.995 -0.123252 29.8237 0.534526L28.5321 0.332296L28.5036 0.433886L29.1729 0.630555C28.9515 0.750555 28.8556 0.861168 28.7775 0.842279C28.3291 0.775612 27.8807 0.741182 27.4322 0.731738C26.739 0.429515 25.4077 0.367203 24.0814 0.486648Z" fill="white"/>
</svg>
